<svg id="Grupo_100" data-name="Grupo 100" xmlns="http://www.w3.org/2000/svg" xmlns:xlink="http://www.w3.org/1999/xlink" width="38.77" height="45.775" viewBox="0 0 38.77 45.775">
  <defs>
    <clipPath id="clip-path">
      <rect id="Rectángulo_103" data-name="Rectángulo 103" width="38.77" height="45.775" transform="translate(0 0)" fill="none"/>
    </clipPath>
  </defs>
  <g id="Grupo_148" data-name="Grupo 148" transform="translate(0 0)" clip-path="url(#clip-path)">
    <path id="Trazado_60" data-name="Trazado 60" d="M44.068,45.648l-11.634,11.6a2.8,2.8,0,0,1-3.973,0L22.12,50.925v0L36.237,36.8l.165-.16L48.456,24.59a19.427,19.427,0,0,1-4.388,21.058" transform="translate(-11.066 -12.302)" fill="#34a852"/>
    <path id="Trazado_61" data-name="Trazado 61" d="M27.375,25.545c-.055.055-.11.1-.165.16l.16-.165Z" transform="translate(-13.612 -12.777)" fill="#fabb04"/>
    <path id="Trazado_62" data-name="Trazado 62" d="M12,51.566v0L6.717,46.289A19.431,19.431,0,0,1,1.9,38.513L14.548,25.87A8.184,8.184,0,0,0,26.122,37.444c.055-.055.1-.11.16-.165l.005,0Z" transform="translate(-0.951 -12.942)" fill="#fabb04"/>
    <path id="Trazado_63" data-name="Trazado 63" d="M51.162,13.239,39.109,25.292l0-.005A8.183,8.183,0,0,0,27.535,13.718l0,0L39.349,1.9A19.009,19.009,0,0,1,51.162,13.239" transform="translate(-13.773 -0.951)" fill="#4285f4"/>
    <path id="Trazado_64" data-name="Trazado 64" d="M13.757,17.911l-.16.165L.949,30.719A19.95,19.95,0,0,1,6.142,10.29Z" transform="translate(0 -5.148)" fill="#ea4335"/>
    <path id="Trazado_65" data-name="Trazado 65" d="M31.724.949,19.906,12.763,12.29,5.142A18.694,18.694,0,0,1,24.723.015q.4-.015.81-.015c.27,0,.54,0,.8.015a19.421,19.421,0,0,1,5.387.934" transform="translate(-6.148 0)" fill="#1a73e8"/>
  </g>
</svg>
