<svg xmlns="http://www.w3.org/2000/svg" viewBox="0 0 644.37 720">
  <style>
    svg { fill: #18442a; }
    @media (prefers-color-scheme: dark) {
      svg { fill: #b8e04b; }
    }
  </style>
<path d="M196.4 308.54c0-2.65.19-5.25.53-7.84.75-5.68 2.31-11.18 4.65-16.36a58.525 58.525 0 0 1 17.7-22.6l123.17-95.6 97.23 71.97c8.24 6.09 18.2 9.37 28.44 9.37h91.79v-95.17h-70.56l-.47 38.75-110.24-81.55h-72.78L152.5 228.53a69.012 69.012 0 0 0-26.66 54.51v264.73c0 35.22 28.54 63.76 63.76 63.76h5.49l1.84.03v-.13c10.9.03 154.83.43 176.36-.35 47.46-1.72 89.79-20.45 112.9-55.54v55.54h72.5V336.2l-33.59-8.4c-241.25-79.6-319.89 95.9-328.53 236.26.12-59.04-.17-255.51-.17-255.51Zm277.22 83.91c0 .22.03.44 0 .69.25.06.47.12.72.19.06 3.68.22 10.46-.47 19.17-3.75 100.85-94.76 143.59-189.7 124.64 7.15-121.3 97.1-174.5 189.46-144.68Z"/></svg>
