<svg id="Grupo_1600" data-name="Grupo 1600" xmlns="http://www.w3.org/2000/svg" width="51.847" height="44.979" viewBox="0 0 51.847 44.979">
  <path id="waze-svgrepo-com" d="M28.762,1.591q-.729.01-1.458.065A23.835,23.835,0,0,0,14.192,6.683c-4.74,3.742-7.12,9.343-7.552,15.23h0a18.169,18.169,0,0,1-1.013,5.682c-.514,1.035-.907,1.378-2.679,1.38A3.037,3.037,0,0,0,.574,33.762a21.614,21.614,0,0,0,10.2,7.267,4.742,4.742,0,0,0,9.279,1.936,66.9,66.9,0,0,0,8.261.216c.786-.026,1.577-.1,2.363-.2A4.745,4.745,0,1,0,39.7,40.1a26.258,26.258,0,0,0,4.975-3.346c4.524-3.9,7.585-9.5,7.133-15.995A18.521,18.521,0,0,0,48.027,10.8,23.567,23.567,0,0,0,28.762,1.591Zm.791,3.327c.674.017,1.346.058,2.016.136a20.026,20.026,0,0,1,13.826,7.727v0a15.175,15.175,0,0,1,3.124,8.192v.006c.374,5.351-2.085,9.9-6,13.279a23.03,23.03,0,0,1-5.131,3.316,4.724,4.724,0,0,0-6.3,2,21.374,21.374,0,0,1-2.891.315,59.028,59.028,0,0,1-8.579-.32,4.735,4.735,0,0,0-7.084-1.5,19.074,19.074,0,0,1-8.976-5.967,5.976,5.976,0,0,0,5.01-3.042c.957-1.921,1.145-4.206,1.35-6.909v0c.378-5.165,2.4-9.8,6.308-12.884h0A20.681,20.681,0,0,1,29.552,4.92Zm-6.82,10.019a2.8,2.8,0,1,0,2.7,2.8A2.758,2.758,0,0,0,22.732,14.937Zm11.912,0a2.8,2.8,0,1,0,2.7,2.8A2.754,2.754,0,0,0,34.644,14.937ZM20.827,23.6a1.555,1.555,0,0,0-1.27.691,1.5,1.5,0,0,0-.238,1.167c.745,3.852,4.7,6.76,9.212,6.76h.27a10.732,10.732,0,0,0,6.083-1.992,7.987,7.987,0,0,0,3.191-4.617,1.612,1.612,0,0,0-.2-1.182,1.491,1.491,0,0,0-.961-.691,1.542,1.542,0,0,0-1.873,1.164c-.475,2.009-2.806,4.1-6.338,4.191-3.4.1-5.915-2.13-6.321-4.226A1.555,1.555,0,0,0,20.827,23.6Z" transform="translate(-0.001 -1.589)"/>
  <path id="waze-svgrepo-com-2" data-name="waze-svgrepo-com" d="M28.407,3.849c.674.017,1.346.058,2.016.136a20.026,20.026,0,0,1,13.826,7.727v0a15.174,15.174,0,0,1,3.124,8.192v.006c.374,5.351-2.085,9.9-6,13.279a23.03,23.03,0,0,1-5.131,3.316,4.725,4.725,0,0,0-6.3,2,21.374,21.374,0,0,1-2.891.315,59.028,59.028,0,0,1-8.579-.32A4.735,4.735,0,0,0,11.394,37a19.074,19.074,0,0,1-8.976-5.967,5.976,5.976,0,0,0,5.01-3.042c.957-1.921,1.145-4.206,1.35-6.909v0c.378-5.165,2.4-9.8,6.308-12.884h0A20.681,20.681,0,0,1,28.407,3.851Zm-6.82,10.019a2.8,2.8,0,1,0,2.7,2.8A2.758,2.758,0,0,0,21.587,13.868Zm11.912,0a2.8,2.8,0,1,0,2.7,2.8A2.754,2.754,0,0,0,33.5,13.868ZM19.681,22.535a1.555,1.555,0,0,0-1.27.691,1.5,1.5,0,0,0-.238,1.167c.745,3.852,4.7,6.76,9.212,6.76h.27a10.731,10.731,0,0,0,6.083-1.992,7.987,7.987,0,0,0,3.191-4.617,1.612,1.612,0,0,0-.2-1.182,1.491,1.491,0,0,0-.961-.691,1.542,1.542,0,0,0-1.873,1.164c-.475,2.009-2.806,4.1-6.338,4.191-3.4.1-5.915-2.13-6.321-4.226a1.555,1.555,0,0,0-1.551-1.266Z" transform="translate(1.145 -0.52)" fill="#fff"/>
</svg>
